<svg version="1.2" xmlns="http://www.w3.org/2000/svg" viewBox="0 0 3000 3000" width="512" height="512">
	<title>vecteezy_a-black-and-white-silhouette-of-a-running-shoe-with-wings_51731022</title>
	<style>
		.s0 { fill: #000000 } 
	</style>
	<g id="_Artboards_">
	</g>
	<g id="Layer 1">
		<g id="&lt;Group&gt;">
			<path id="&lt;Path&gt;" class="s0" d="m540.4 2547.2c69.3-5.5 130.5-33 186.1-71.7 136.8-95.1 260.3-205.8 369.9-331.2 53.5-61 101-127 134.6-201.8 21.1-46.8 23-94.7-1.6-139.5-17.6-32.3-41.1-61.8-64.6-90.3-26.6-32.3-56.2-62.2-84.5-93.1 6.6-0.4 10.6 2.2 14.3 5.1 40.4 31.4 79.9 64 121.4 93.8 18.7 13.4 40.4 24.3 62.4 30.6 38.9 11 77.7 8 119.4-16.6-95.2-75.1-202.2-121.3-299.3-184.2 8.5-0.4 15.7 1.9 22.9 4.2 80.2 24.8 160 50.9 240.6 74.1 46.9 13.5 93.3 7.3 134.7-19.9 15-9.8 26.9-24.5 44-40.5-25.6-8.4-44-15.6-63-20.3-99.2-25-198.5-49.2-297.7-74-7.3-1.8-13.9-5.9-20.8-8.9 7.5-3.6 13.4-4.3 19.1-3.5 65.1 9 130.1 19.9 195.4 26.9 56.6 6.1 113.6 11.2 170.4 10.6 63.3-0.8 117.5-51.4 121-108-139.5-11-279.3 0.6-419.1-4 5.3-3.7 10.7-5.4 16.2-6.2 49.1-7.3 98.7-12.4 147.4-22 78.7-15.7 158-30.1 234.7-53 61-18.2 99.7-64.6 112.3-129 5.4-27.2-0.7-32.3-27.6-23.1-59.4 20.4-118.6 41.2-177.7 62.6-69.1 25.1-137.9 51-206.9 76.5 6.9-8 15.4-13 24-17.7 101.9-55.7 205.2-109.1 305-168.2 40.8-24.1 76.8-58.1 110.3-92.2 31.8-32.6 36.1-76 29.8-121.6-145.3 91.1-297 168-428.6 276.6 3-7.8 7.6-13.3 12.3-18.8 61.8-70.8 137.5-124.2 216.7-173.2 100.1-62.1 181.5-142.3 235.9-247.8 47.7-92.6 66.6-189.9 45.3-293-4-19.1-11.6-37.6-18.9-55.8-2.1-5.1-8.8-10.3-14.1-11.4-2.9-0.6-9.3 6.7-11.1 11.5-4.6 13-9.6 26.3-11 39.9-15.6 153.1-102.8 266.2-210.2 375 5.7-12.2 8.6-19.4 12.3-26.2 17.1-31.4 35.7-62.1 51.4-94.2 60.6-124.6 56.9-246.8-16.6-365.5-6.2-10-14.7-18.6-26.5-33.2-5.1 17.7-10.7 28.5-10.8 39.4-0.1 24 0.9 48.3 4.5 72 20 130.5-5.3 251.1-74.4 363.4-87.7 142.9-210.7 246.8-356.3 326.4-30.7 16.8-61.3 34.4-89.8 54.6-106.6 75.4-175.5 174.4-186.7 307.9-2.5 29.1-3 58.4-6.3 87.4-26.2 230.5-145 391.3-361.4 478.1-14.9 6-30.2 11.1-45.1 17-70.4 28.1-137.9 60.8-188 120.5-61 72.7-78 181.7-36.1 258.8 51.3 94.6 124.7 155.9 240.4 146.7z"/>
			<path id="&lt;Path&gt;" class="s0" d="m1924.3 1103.2c84-29.1 169.7-54.5 251.7-88.5 124-51.4 227.6-131.7 302.7-244.3 98-147 126.3-310.4 107.7-483.7-3.3-30.7-9.3-61.2-14.1-91.7q-2.2 0-4.5 0c-2.6 5.8-5.4 11.6-7.9 17.5-28.5 67.8-66.9 129.6-112.3 187.4-78.7 100.3-175.5 181.4-274.5 260.3-64.7 51.5-130.3 101.8-208.4 131.9-18.4 7.1-28.8 18.4-33.7 36.5-3.1 11.3-8.5 22.3-9.4 33.7-6.8 81.1-12.7 162.4-19 245.8 9.2-2 15.6-2.8 21.7-4.9z"/>
			<path id="&lt;Path&gt;" class="s0" d="m1834.1 2071.9c-74.3-40.7-153.9-44.9-234.5-27.6-108.4 23.2-200.5 80.5-283.3 151.5-107.6 92.3-211.3 189.1-317.9 282.6-70.9 62.2-143.6 122.6-227.8 166.7-82.1 42.9-168.4 65.5-262.1 51-56.3-8.7-104.3-33.7-147.8-73.8 0.6 5.4 0.3 7.7 1.2 9.4 4.1 7.8 7.9 15.7 12.8 22.9 66.2 96.9 158.8 147.3 275.4 150.3 85.6 2.3 163.4-27.4 236.8-69.5 88.2-50.6 161.8-119.9 237.5-186.5 101-88.8 200.4-179.6 305.6-263.1 98.1-77.9 210.4-129.7 337.5-140.5 43.3-3.7 87.2-0.6 132.2-0.6-12-33.2-35.5-56.3-65.6-72.8z"/>
			<path id="&lt;Path&gt;" class="s0" d="m1882.3 1158.6c-13.1 4.5-18.4 9.2-19 23.6-2.1 51.1-16.4 99.2-39.8 144.6-3 6-5.5 12.3-9.9 22.2 33.8 0 63-0.3 92.2 0.1 89.3 1.1 178.8 0.1 266-21.1 230.9-56.2 394-196.8 495.9-409.2 23-48.1 37.5-100.3 55.4-149.1-61.5 39.8-119.2 82.4-181.5 116.6-209.7 114.8-433.4 196.3-659.3 272.3z"/>
			<path id="&lt;Path&gt;" class="s0" d="m1793.4 1411.1c-6.8 0.6-16.1 5.2-19.1 10.7-26.7 49.8-67.4 83.5-118.1 106.7-5.2 2.4-11.3 7.2-13 12.3-6.2 18.5-10.7 37.6-16.8 60 46.2 10.5 92.3 21.2 138.4 31.5 135.9 30.5 271.7 40.2 407-2.7 167-52.9 303.8-147.6 402.7-293.8 7.9-11.6 14.2-24.3 24.4-41.8-115.1 50.2-230.9 65.3-347.2 76.6-152.6 14.9-305.6 26.7-458.3 40.5z"/>
			<path id="&lt;Path&gt;" class="s0" d="m2128.8 1731.2c-169.5-21.1-338.2-47.9-507.3-71.7-8.3-1.2-20.2 2-26.1 7.6-37.1 35.8-80.6 54.4-132.2 53.7-6.6-0.1-13.1 0-19.6 0q-1.2 3.5-2.4 6.9c48.8 39.3 96.5 80.1 146.6 117.7 79.1 59.2 169.5 82.3 267.7 78.8 110.4-3.9 212.3-36.6 308.8-88.2 53.4-28.5 104.4-60.6 151.5-103.6-64.9 0-126.8 6.2-187-1.2z"/>
		</g>
	</g>
</svg>